# xmcd
#
# Track frame offsets: 
#        150
#        12495
#        24220
#        34684
#        45866
#        58974
#
# Disc length: 971 seconds
#
# Revision: 0
# Processed by: cddbd v1.5.1PL2 Copyright (c) Steve Scherf et al.
# Submitted via: ExactAudioCopy v0.95a5
#
DISCID=3f03c906
DTITLE=Leon Chance and the Long Shots - demo 
DYEAR=2002
DGENRE=Hyde Park, Chicago
TTITLE0=Nine By Twelve
TTITLE1=I'll Cry Forever
TTITLE2=Pick Me Up On Your Way Down
TTITLE3=Take This Job and Shove It
TTITLE4=Redneck, White Socks, and Blue Ribbon Beer
TTITLE5=Before I Met You
EXTD=
EXTT0=
EXTT1=
EXTT2=
EXTT3=
EXTT4=
EXTT5=
PLAYORDER=
